<svg id="Layer_1" data-name="Layer 1" xmlns="http://www.w3.org/2000/svg" xmlns:xlink="http://www.w3.org/1999/xlink" viewBox="0 0 400 400"><defs><style>.cls-1{fill:#3f51b5;}.cls-2{fill:url(#linear-gradient);}.cls-3{fill:#fff;}</style><linearGradient id="linear-gradient" x1="289.31" y1="108.47" x2="5.66" y2="392.11" gradientUnits="userSpaceOnUse"><stop offset="0" stop-color="#242f68"/><stop offset="1" stop-color="#3f51b5" stop-opacity="0"/></linearGradient></defs><title>fuel-tracker-marketplace-solution-icon</title><rect id="_Path_" data-name="&lt;Path&gt;" class="cls-1" width="400" height="400" rx="23.28" ry="23.28"/><path class="cls-2" d="M315.36,126.83h0l.15-.15L258.73,69.89l-.28-.28L242.19,85.87l.28.28-15.62,15.62V92.62a30.77,30.77,0,0,0-30.68-30.68h-92a30.46,30.46,0,0,0-17.84,5.77,31.06,31.06,0,0,0-7.07,7.07L0,154V376.72A23.28,23.28,0,0,0,23.28,400H241.2l68.61-68.61a38.59,38.59,0,0,0,10-10,38.15,38.15,0,0,0,6.69-21.63V154A38.38,38.38,0,0,0,315.36,126.83Z"/><path id="path4142" class="cls-3" d="M315.36,126.82l.15-.15L258.45,69.61,242.19,85.87l32.37,32.37a38.3,38.3,0,0,0,14.2,74.09,39.35,39.35,0,0,0,14.79-3.22v110.2a15.61,15.61,0,0,1-13.47,15.63,15.38,15.38,0,0,1-17.21-15.23v-69A30.77,30.77,0,0,0,242.19,200H226.85V92.62a30.77,30.77,0,0,0-30.68-30.68h-92A30.77,30.77,0,0,0,73.44,92.62V338.06h153.4V223h14.27a8.74,8.74,0,0,1,8.74,8.74V299c0,21.49,17.59,39.5,39.07,39.1a38.37,38.37,0,0,0,37.63-38.34V154a38.38,38.38,0,0,0-11.2-27.15ZM196.16,169.31h-92V92.61h92Zm92,0A15.34,15.34,0,1,1,303.55,154,15.39,15.39,0,0,1,288.21,169.31Z"/></svg>